<svg xmlns="http://www.w3.org/2000/svg" xmlns:xlink="http://www.w3.org/1999/xlink" width="3960.24" height="757.14" viewBox="0 0 3960.24 757.14"><defs><clipPath id="a"><path d="M232.387,80.651V391.08s-4.894,15.553-17.336,15.553-16.382-15.553-16.382-15.553V248.245a27.331,27.331,0,0,0-54.621,0V350.021c-.871,2.405-5.931,15.1-17.17,15.1-12.442,0-16.382-15.553-16.382-15.553V325.718a27.331,27.331,0,1,0-54.621,0V556.559a27.331,27.331,0,1,0,54.621,0V404.227a18.995,18.995,0,0,1,33.552-.29v234.2a27.331,27.331,0,1,0,54.621,0V445.7a18.995,18.995,0,0,1,33.676,0V783.129a27.331,27.331,0,0,0,54.662,0V394.9a18.995,18.995,0,0,1,33.676,0V720.462a27.331,27.331,0,0,0,54.621,0V443.668a18.995,18.995,0,0,1,33.676,0v92.278a27.331,27.331,0,0,0,54.621,0V523.5a18.995,18.995,0,0,1,33.676,0V624.327a27.331,27.331,0,0,0,54.662,0V470.875a18.995,18.995,0,0,1,33.677,0v36.663a27.331,27.331,0,0,0,54.621,0V380.172a27.331,27.331,0,0,0-54.621,0v35.709s-4.894,15.553-17.336,15.553-16.341-15.553-16.341-15.553v-148.6a27.331,27.331,0,1,0-54.662,0V469.009s-4.894,15.553-17.336,15.553-16.382-15.553-16.382-15.553V346a27.331,27.331,0,1,0-54.62,0v43.049S404.046,404.6,391.6,404.6s-16.382-15.553-16.382-15.553V160.28a27.331,27.331,0,1,0-54.621,0V340.233s-4.894,15.553-17.336,15.553-16.341-15.553-16.341-15.553V80.651a27.331,27.331,0,1,0-54.662,0" transform="translate(-55.855 -53.32)"/></clipPath><clipPath id="b"><path d="M751.209,242.693V192.925h-44.46V488.838h45.082V347.372c0-63.206,20.2-117.121,87.592-117.121V185.667c-44.584,0-77.721,26.958-88.09,56.985m251.329-18.663c48.731,0,91.739,31.6,94.311,92.776H907.232c3.608-55.45,46.658-92.776,95.389-92.776M859.081,342.147c0,91.242,61.671,154.447,151.834,154.447,67.353,0,105.716-36.787,122.305-64.782l-29.529-21.234c-13.977,19.7-41.971,46.118-92.237,46.118-61.132,0-105.716-39.9-106.255-106.255h237.353c.539-5.682.539-11.9.539-13.479,0-88.629-53.376-151.337-140.429-151.337-78.8,0-143.54,61.671-143.54,156.521m366.916,54.911c0-34.713,29.031-60.634,74.113-60.634s74.113,23.847,74.113,60.634-30.068,61.671-73.574,61.671c-45.621,0-74.652-27.455-74.652-61.671m-30.566-179.29,18.124,33.179a171.452,171.452,0,0,1,87.094-25.382c44.045,0,72.039,23.847,72.039,65.279v36.289c-11.9-12.442-40.437-26.419-78.26-26.419-66.357,0-113.471,40.934-113.471,97.421,0,57.524,47.695,98.458,112.435,98.458,39.9,0,64.781-15.013,80.334-32.64l5.184,24.884h38.861V293.5c0-63.247-32.142-107.831-112.974-107.831a210.272,210.272,0,0,0-109.366,32.142M1708,239.583c-13.479-32.64-45.082-53.915-89.126-53.915-41.474,0-72.537,24.345-83.942,49.768v-42.51h-44.708V488.838h45.082V309.548c0-50.266,32.64-82.947,72.04-82.947,41.473,0,67.353,28.492,67.353,75.648V488.88h45.082v-177.8c0-54.952,31.6-84.481,73.076-84.481,43.547,0,66.357,28.492,66.357,83.942V488.88H1904.3V297.106c0-64.782-35.252-111.439-101.071-111.439-42.51,0-77.721,18.663-95.389,53.915m603.232,101.071c0-62.21,38.861-114.011,100.034-114.011,56.984,0,101.568,44.045,101.568,114.011,0,67.394-42.51,115.047-100.531,115.047-55.45,0-101.071-42.51-101.071-115.047m0-101.071V192.925H2267.52V595.591H2312.6V441.185a122.928,122.928,0,0,0,104.679,55.45c83.942,0,141.466-64.782,141.466-155.982s-60.634-154.945-144.576-154.945a122.388,122.388,0,0,0-103.145,53.915m331.788,157.6c0-34.713,29.031-60.634,74.113-60.634s74.113,23.847,74.113,60.634-30.068,61.671-73.574,61.671c-45.621,0-74.652-27.455-74.652-61.671m-30.566-179.29,18.124,33.179a171.491,171.491,0,0,1,87.094-25.382c44.045,0,72.039,23.847,72.039,65.279V327.3c-11.9-12.442-40.437-26.419-78.26-26.419-66.358,0-113.513,40.934-113.513,97.421,0,57.524,47.695,98.458,112.435,98.458,39.9,0,64.781-15.013,80.334-32.64L2795.685,489h38.654V293.5c0-63.247-32.142-107.831-112.974-107.831a210.27,210.27,0,0,0-109.324,32.142m275.342,123.176c0,87.592,63.745,155.484,151.834,155.484a146.651,146.651,0,0,0,103.684-42.51l-13.479-37.824c-11.9,11.9-41.473,39.4-88.09,39.4-61.173.166-107.458-50.639-107.458-114.55,0-64.781,44.045-114.011,105.716-114.011a125,125,0,0,1,88.09,37.326l15.013-38.363c-15.013-15.013-49.768-40.437-104.14-40.437-86.016,0-151.337,67.353-151.337,155.484m435.471-117.121c49.229,0,91.74,31.6,94.85,92.776h-189.7c3.65-55.45,46.658-92.776,94.85-92.776M3179.646,342.022c0,91.242,61.671,154.447,151.834,154.447,67.353,0,105.716-36.787,122.305-64.782l-29.529-21.234c-13.977,19.7-41.971,46.119-92.237,46.119-61.671,0-105.716-39.9-106.255-106.255h237.353c.54-5.682.54-11.9.54-13.479,0-88.629-53.376-151.337-141.01-151.337-78.26,0-143.042,61.671-143.042,156.521M542.307,130.508v62.21h-34.63v38.363H542.39V387.6c0,66.358,25.382,105.218,84.481,105.218a235.947,235.947,0,0,0,27.455-1.534v-39.9s-6.76.5-12.442.5c-38.861,0-54.413-12.94-54.413-68.39V231.288h64.781V192.925H587.471v-62.21H542.39ZM243.283,184.921c0,128.568,186.631,102.605,186.631,202.639,0,41.474-30.068,65.818-72.039,65.818-52.34,0-76.685-31.105-87.094-62.21l-39.4,17.087c12.442,38.363,47.155,88.09,124.42,88.09,74.652,0,120.729-49.229,120.729-111.978,0-127.489-187.087-108.826-187.087-199.529,0-33.179,23.308-60.1,66.855-60.1s65.818,30.068,74.652,50.266l38.861-16.05C459.982,132,428.338,82.771,357.377,82.771S243.366,127.853,243.366,184.879m1728.822,0c0,128.568,186.631,102.605,186.631,202.639,0,41.473-30.068,65.818-72.04,65.818-52.339,0-76.187-31.105-87.094-62.21l-39.4,17.087c12.442,38.363,47.155,88.09,124.876,88.09,74.652,0,120.729-49.229,120.729-111.978,0-127.489-187.584-108.826-187.584-199.529,0-33.179,23.308-60.1,67.353-60.1s65.279,30.068,74.652,50.266l38.363-16.05C2189.343,131.959,2157.2,82.73,2086.2,82.73s-114.01,45.082-114.01,102.108" transform="translate(-231.38 -82.73)" fill="none"/></clipPath></defs><g transform="translate(0.005 0.01)"><path d="M232.387,80.651V391.08s-4.894,15.553-17.336,15.553-16.382-15.553-16.382-15.553V248.245a27.331,27.331,0,0,0-54.621,0V350.021c-.871,2.405-5.931,15.1-17.17,15.1-12.442,0-16.382-15.553-16.382-15.553V325.718a27.331,27.331,0,1,0-54.621,0V556.559a27.331,27.331,0,1,0,54.621,0V404.227a18.995,18.995,0,0,1,33.552-.29v234.2a27.331,27.331,0,1,0,54.621,0V445.7a18.995,18.995,0,0,1,33.676,0V783.129a27.331,27.331,0,0,0,54.662,0V394.9a18.995,18.995,0,0,1,33.676,0V720.462a27.331,27.331,0,0,0,54.621,0V443.668a18.995,18.995,0,0,1,33.676,0v92.278a27.331,27.331,0,0,0,54.621,0V523.5a18.995,18.995,0,0,1,33.676,0V624.327a27.331,27.331,0,0,0,54.662,0V470.875a18.995,18.995,0,0,1,33.677,0v36.663a27.331,27.331,0,0,0,54.621,0V380.172a27.331,27.331,0,0,0-54.621,0v35.709s-4.894,15.553-17.336,15.553-16.341-15.553-16.341-15.553v-148.6a27.331,27.331,0,1,0-54.662,0V469.009s-4.894,15.553-17.336,15.553-16.382-15.553-16.382-15.553V346a27.331,27.331,0,1,0-54.62,0v43.049S404.046,404.6,391.6,404.6s-16.382-15.553-16.382-15.553V160.28a27.331,27.331,0,1,0-54.621,0V340.233s-4.894,15.553-17.336,15.553-16.341-15.553-16.341-15.553V80.651a27.331,27.331,0,1,0-54.662,0" transform="translate(-55.86 -53.33)"/><g transform="translate(-0.005 -0.01)" clip-path="url(#a)"><rect width="584.444" height="757.098" transform="translate(0.021 0.041)"/></g><g transform="translate(727.958 121.963)" clip-path="url(#b)"><rect width="3232.194" height="512.529" transform="translate(0.042 0.373)"/></g></g></svg>